<svg width="120" height="485" viewBox="0 0 120 485" fill="none" xmlns="http://www.w3.org/2000/svg">
<path d="M29.6 27C29.2 27 29 26.9 28.6 26.7L22 23V30C22 30.6 22.4 31 22.9 31H36.1C36.7 31 37 30.6 37 30V23L30.5 26.7C30.1 26.9 29.9 27 29.6 27ZM36.1 19H22.9C22.4 19 22 19.5 22 20V20.8L29.5 25L37 20.8V20C37 19.5 36.6 19 36.1 19Z" fill="black"/>
<path d="M30 50H28V52H30V50Z" fill="black"/>
<path d="M30 54H28V62H30V54Z" fill="black"/>
<path d="M23 93H36C35.8 90.4 33.9 88.2 31.3 87.5C32.3 86.9 33 85.8 33 84.5C33 82.6 31.4 81 29.5 81C27.6 81 26 82.6 26 84.5C26 85.8 26.7 86.9 27.7 87.5C25.1 88.2 23.2 90.4 23 93Z" fill="black"/>
<path d="M37 119H30V112H28V119H21V121H28V128H30V121H37V119Z" fill="black"/>
<path d="M37 154H21V156H37V154Z" fill="black"/>
<path d="M36.7 196.3L33.6 193.2C34.5 192 35 190.6 35 189C35 185.1 31.9 182 28 182C24.1 182 21 185.1 21 189C21 192.9 24.1 196 28 196C29.6 196 31 195.5 32.2 194.6L35.3 197.7C35.5 197.9 35.7 198 36 198C36.6 198 37 197.6 37 197C37 196.8 36.9 196.5 36.7 196.3ZM23 189C23 186.2 25.2 184 28 184C30.8 184 33 186.2 33 189C33 191.8 30.8 194 28 194C25.2 194 23 191.8 23 189Z" fill="black"/>
<path d="M36.3 222L32.8 222.2L29.6 217.3C29.5 217.1 29.2 217 29 217C28.8 217 28.5 217.1 28.4 217.3L25.2 222.2H21.7C21.3 222.2 21 222.5 21 222.9C21 223 21 223 21 223.1L22.9 229.9C23.1 230.6 23.6 231 24.3 231H33.7C34.4 231 34.9 230.6 35.1 229.9L37 223C37 222.9 37 222.9 37 222.8C37 222.4 36.7 222 36.3 222ZM29 218.9L31.2 222.1H26.9L29 218.9Z" fill="black"/>
<path d="M30 250H28V262H30V250Z" fill="black"/>
<path d="M26 254H24V262H26V254Z" fill="black"/>
<path d="M34 253H32V262H34V253Z" fill="black"/>
<path d="M35 282L34 281L29.5 285.5L25 281L24 282L28.5 286.5L24 291L25 292L29.5 287.5L34 292L35 291L30.5 286.5L35 282Z" fill="black"/>
<path d="M30.1 317.825L34.8 313.325C35.1 313.025 35.1 312.525 34.8 312.225C34.5 311.925 34 311.925 33.7 312.225L29.5 316.225L25.3 312.225C25 311.925 24.5 311.925 24.2 312.225C24.1 312.425 24 312.625 24 312.825C24 313.025 24.1 313.225 24.2 313.325L28.9 317.825C29.3 318.125 29.7 318.125 30.1 317.825Z" fill="black"/>
<path d="M29.4998 348L24.4998 338H34.4998" fill="black"/>
<g opacity="0.6">
<path d="M61.6 27C61.2 27 61 26.9 60.6 26.7L54 23V30C54 30.6 54.4 31 54.9 31H68.1C68.7 31 69 30.6 69 30V23L62.5 26.7C62.1 26.9 61.9 27 61.6 27ZM68.1 19H54.9C54.4 19 54 19.5 54 20V20.8L61.5 25L69 20.8V20C69 19.5 68.6 19 68.1 19Z" fill="black"/>
</g>
<g opacity="0.3">
<path d="M93.6 27C93.2 27 93 26.9 92.6 26.7L86 23V30C86 30.6 86.4 31 86.9 31H100.1C100.7 31 101 30.6 101 30V23L94.5 26.7C94.1 26.9 93.9 27 93.6 27ZM100.1 19H86.9C86.4 19 86 19.5 86 20V20.8L93.5 25L101 20.8V20C101 19.5 100.6 19 100.1 19Z" fill="black"/>
</g>
<g opacity="0.6">
<path d="M62 50H60V52H62V50Z" fill="black"/>
<path d="M62 54H60V62H62V54Z" fill="black"/>
</g>
<g opacity="0.3">
<path d="M94 50H92V52H94V50Z" fill="black"/>
<path d="M94 54H92V62H94V54Z" fill="black"/>
</g>
<g opacity="0.6">
<path d="M55 93H68C67.8 90.4 65.9 88.2 63.3 87.5C64.3 86.9 65 85.8 65 84.5C65 82.6 63.4 81 61.5 81C59.6 81 58 82.6 58 84.5C58 85.8 58.7 86.9 59.7 87.5C57.1 88.2 55.2 90.4 55 93Z" fill="black"/>
</g>
<g opacity="0.3">
<path d="M87 93H100C99.8 90.4 97.9 88.2 95.3 87.5C96.3 86.9 97 85.8 97 84.5C97 82.6 95.4 81 93.5 81C91.6 81 90 82.6 90 84.5C90 85.8 90.7 86.9 91.7 87.5C89.1 88.2 87.2 90.4 87 93Z" fill="black"/>
</g>
<g opacity="0.6">
<path d="M69 119H62V112H60V119H53V121H60V128H62V121H69V119Z" fill="black"/>
</g>
<g opacity="0.3">
<path d="M101 119H94V112H92V119H85V121H92V128H94V121H101V119Z" fill="black"/>
</g>
<g opacity="0.6">
<path d="M69 154H53V156H69V154Z" fill="black"/>
</g>
<g opacity="0.3">
<path d="M101 154H85V156H101V154Z" fill="black"/>
</g>
<g opacity="0.6">
<path d="M68.7 196.3L65.6 193.2C66.5 192 67 190.6 67 189C67 185.1 63.9 182 60 182C56.1 182 53 185.1 53 189C53 192.9 56.1 196 60 196C61.6 196 63 195.5 64.2 194.6L67.3 197.7C67.5 197.9 67.7 198 68 198C68.6 198 69 197.6 69 197C69 196.8 68.9 196.5 68.7 196.3ZM55 189C55 186.2 57.2 184 60 184C62.8 184 65 186.2 65 189C65 191.8 62.8 194 60 194C57.2 194 55 191.8 55 189Z" fill="black"/>
</g>
<g opacity="0.3">
<path d="M100.7 196.3L97.6 193.2C98.5 192 99 190.6 99 189C99 185.1 95.9 182 92 182C88.1 182 85 185.1 85 189C85 192.9 88.1 196 92 196C93.6 196 95 195.5 96.2 194.6L99.3 197.7C99.5 197.9 99.7 198 100 198C100.6 198 101 197.6 101 197C101 196.8 100.9 196.5 100.7 196.3ZM87 189C87 186.2 89.2 184 92 184C94.8 184 97 186.2 97 189C97 191.8 94.8 194 92 194C89.2 194 87 191.8 87 189Z" fill="black"/>
</g>
<g opacity="0.6">
<path d="M68.3 222L64.8 222.2L61.6 217.3C61.5 217.1 61.2 217 61 217C60.8 217 60.5 217.1 60.4 217.3L57.2 222.2H53.7C53.3 222.2 53 222.5 53 222.9C53 223 53 223 53 223.1L54.9 229.9C55.1 230.6 55.6 231 56.3 231H65.7C66.4 231 66.9 230.6 67.1 229.9L69 223C69 222.9 69 222.9 69 222.8C69 222.4 68.7 222 68.3 222ZM61 218.9L63.2 222.1H58.9L61 218.9Z" fill="black"/>
</g>
<g opacity="0.3">
<path d="M100.3 222L96.8 222.2L93.6 217.3C93.5 217.1 93.2 217 93 217C92.8 217 92.5 217.1 92.4 217.3L89.2 222.2H85.7C85.3 222.2 85 222.5 85 222.9C85 223 85 223 85 223.1L86.9 229.9C87.1 230.6 87.6 231 88.3 231H97.7C98.4 231 98.9 230.6 99.1 229.9L101 223C101 222.9 101 222.9 101 222.8C101 222.4 100.7 222 100.3 222ZM93 218.9L95.2 222.1H90.9L93 218.9Z" fill="black"/>
</g>
<g opacity="0.6">
<path d="M62 250H60V262H62V250Z" fill="black"/>
<path d="M58 254H56V262H58V254Z" fill="black"/>
<path d="M66 253H64V262H66V253Z" fill="black"/>
</g>
<g opacity="0.3">
<path d="M94 250H92V262H94V250Z" fill="black"/>
<path d="M90 254H88V262H90V254Z" fill="black"/>
<path d="M98 253H96V262H98V253Z" fill="black"/>
</g>
<g opacity="0.6">
<path d="M67 282L66 281L61.5 285.5L57 281L56 282L60.5 286.5L56 291L57 292L61.5 287.5L66 292L67 291L62.5 286.5L67 282Z" fill="black"/>
</g>
<g opacity="0.3">
<path d="M99 282L98 281L93.5 285.5L89 281L88 282L92.5 286.5L88 291L89 292L93.5 287.5L98 292L99 291L94.5 286.5L99 282Z" fill="black"/>
</g>
<g opacity="0.6">
<path d="M62.1 317.825L66.8 313.325C67.1 313.025 67.1 312.525 66.8 312.225C66.5 311.925 66 311.925 65.7 312.225L61.5 316.225L57.3 312.225C57 311.925 56.5 311.925 56.2 312.225C56.1 312.425 56 312.625 56 312.825C56 313.025 56.1 313.225 56.2 313.325L60.9 317.825C61.3 318.125 61.7 318.125 62.1 317.825Z" fill="black"/>
</g>
<g opacity="0.3">
<path d="M94.1 317.825L98.8 313.325C99.1 313.025 99.1 312.525 98.8 312.225C98.5 311.925 98 311.925 97.7 312.225L93.5 316.225L89.3 312.225C89 311.925 88.5 311.925 88.2 312.225C88.1 312.425 88 312.625 88 312.825C88 313.025 88.1 313.225 88.2 313.325L92.9 317.825C93.3 318.125 93.7 318.125 94.1 317.825Z" fill="black"/>
</g>
<g opacity="0.6">
<path d="M61.4998 348L56.4998 338H66.4998" fill="black"/>
</g>
<g opacity="0.3">
<path d="M93.4998 348L88.4998 338H98.4998" fill="black"/>
</g>
<path d="M29.5002 367L34.5002 377H24.5002" fill="black"/>
<g opacity="0.6">
<path d="M61.5002 367L66.5002 377H56.5002" fill="black"/>
</g>
<g opacity="0.3">
<path d="M93.5002 367L98.5002 377H88.5002" fill="black"/>
</g>
<g clip-path="url(#clip0_11518_3287)">
<g clip-path="url(#clip1_11518_3287)">
<path d="M31.3467 396.155C32.9467 395.657 34.12 396.453 34.76 397.25C35.2933 397.051 35.9333 396.852 36.5733 396.652C36.5733 397.449 36.04 398.047 35.72 398.246C36.4667 398.445 37 397.848 37 397.848C36.8933 398.744 36.04 399.541 35.5067 399.74C35.2933 406.014 32.52 410.098 26.0133 409.998C25.48 409.998 26.12 409.998 25.5867 409.998C25.2667 409.998 21.64 409.6 21 408.206C23.1333 408.405 24.6267 407.807 25.3733 407.11C24.52 406.811 22.8133 406.712 22.6 404.321C22.92 404.52 23.1333 404.62 23.7733 404.52C22.6 403.724 21.32 403.027 21.4267 401.035C21.7467 401.333 22.3867 401.533 22.7067 401.433C22.0667 401.234 20.7867 398.346 21.8533 396.852C23.56 398.545 25.3733 400.238 28.5733 400.338C28.7867 398.246 29.64 396.852 31.3467 396.155Z" fill="black"/>
</g>
</g>
<g opacity="0.6" clip-path="url(#clip2_11518_3287)">
<g clip-path="url(#clip3_11518_3287)">
<path d="M63.3467 396.155C64.9467 395.657 66.12 396.453 66.76 397.25C67.2933 397.051 67.9333 396.852 68.5733 396.652C68.5733 397.449 68.04 398.047 67.72 398.246C68.4667 398.445 69 397.848 69 397.848C68.8933 398.744 68.04 399.541 67.5067 399.74C67.2933 406.014 64.52 410.098 58.0133 409.998C57.48 409.998 58.12 409.998 57.5867 409.998C57.2667 409.998 53.64 409.6 53 408.206C55.1333 408.405 56.6267 407.807 57.3733 407.11C56.52 406.811 54.8133 406.712 54.6 404.321C54.92 404.52 55.1333 404.62 55.7733 404.52C54.6 403.724 53.32 403.027 53.4267 401.035C53.7467 401.333 54.3867 401.533 54.7067 401.433C54.0667 401.234 52.7867 398.346 53.8533 396.852C55.56 398.545 57.3733 400.238 60.5733 400.338C60.7867 398.246 61.64 396.852 63.3467 396.155Z" fill="black"/>
</g>
</g>
<g opacity="0.3" clip-path="url(#clip4_11518_3287)">
<g clip-path="url(#clip5_11518_3287)">
<path d="M95.3467 396.155C96.9467 395.657 98.12 396.453 98.76 397.25C99.2933 397.051 99.9333 396.852 100.573 396.652C100.573 397.449 100.04 398.047 99.72 398.246C100.467 398.445 101 397.848 101 397.848C100.893 398.744 100.04 399.541 99.5067 399.74C99.2933 406.014 96.52 410.098 90.0133 409.998C89.48 409.998 90.12 409.998 89.5867 409.998C89.2667 409.998 85.64 409.6 85 408.206C87.1333 408.405 88.6267 407.807 89.3733 407.11C88.52 406.811 86.8133 406.712 86.6 404.321C86.92 404.52 87.1333 404.62 87.7733 404.52C86.6 403.724 85.32 403.027 85.4267 401.035C85.7467 401.333 86.3867 401.533 86.7067 401.433C86.0667 401.234 84.7867 398.346 85.8533 396.852C87.56 398.545 89.3733 400.238 92.5733 400.338C92.7867 398.246 93.64 396.852 95.3467 396.155Z" fill="black"/>
</g>
</g>
<g clip-path="url(#clip6_11518_3287)">
<path d="M36.6671 430.675C36.5765 430.351 36.4 430.059 36.1564 429.828C35.9059 429.59 35.5989 429.42 35.2644 429.333C34.0124 429.003 28.9964 429.003 28.9964 429.003C26.9053 428.98 24.8147 429.084 22.7364 429.317C22.4019 429.409 22.0955 429.583 21.8444 429.823C21.5977 430.061 21.4191 430.353 21.3257 430.674C21.1015 431.882 20.9926 433.108 21.0004 434.337C20.9924 435.564 21.1011 436.79 21.3257 437.999C21.4171 438.319 21.5951 438.61 21.8424 438.845C22.0897 439.081 22.3977 439.251 22.7364 439.341C24.0051 439.67 28.9964 439.67 28.9964 439.67C31.0902 439.694 33.1835 439.589 35.2644 439.357C35.5989 439.27 35.9059 439.1 36.1564 438.862C36.3999 438.631 36.5762 438.338 36.6664 438.015C36.8965 436.808 37.0083 435.581 37.0004 434.352C37.0177 433.118 36.906 431.885 36.6671 430.674V430.675ZM27.4017 436.619V432.055L31.5751 434.337L27.4017 436.619Z" fill="black"/>
</g>
<g opacity="0.6" clip-path="url(#clip7_11518_3287)">
<path d="M68.6671 430.675C68.5765 430.351 68.4 430.059 68.1564 429.828C67.9059 429.59 67.5989 429.42 67.2644 429.333C66.0124 429.003 60.9964 429.003 60.9964 429.003C58.9053 428.98 56.8147 429.084 54.7364 429.317C54.4019 429.409 54.0955 429.583 53.8444 429.823C53.5977 430.061 53.4191 430.353 53.3257 430.674C53.1015 431.882 52.9926 433.108 53.0004 434.337C52.9924 435.564 53.1011 436.79 53.3257 437.999C53.4171 438.319 53.5951 438.61 53.8424 438.845C54.0897 439.081 54.3977 439.251 54.7364 439.341C56.0051 439.67 60.9964 439.67 60.9964 439.67C63.0902 439.694 65.1835 439.589 67.2644 439.357C67.5989 439.27 67.9059 439.1 68.1564 438.862C68.3999 438.631 68.5762 438.338 68.6664 438.015C68.8965 436.808 69.0083 435.581 69.0004 434.352C69.0177 433.118 68.906 431.885 68.6671 430.674V430.675ZM59.4017 436.619V432.055L63.5751 434.337L59.4017 436.619Z" fill="black"/>
</g>
<g opacity="0.3" clip-path="url(#clip8_11518_3287)">
<path d="M100.667 430.675C100.576 430.351 100.4 430.059 100.156 429.828C99.9059 429.59 99.5989 429.42 99.2644 429.333C98.0124 429.003 92.9964 429.003 92.9964 429.003C90.9053 428.98 88.8147 429.084 86.7364 429.317C86.4019 429.409 86.0955 429.583 85.8444 429.823C85.5977 430.061 85.4191 430.353 85.3257 430.674C85.1015 431.882 84.9926 433.108 85.0004 434.337C84.9924 435.564 85.1011 436.79 85.3257 437.999C85.4171 438.319 85.5951 438.61 85.8424 438.845C86.0897 439.081 86.3977 439.251 86.7364 439.341C88.0051 439.67 92.9964 439.67 92.9964 439.67C95.0902 439.694 97.1835 439.589 99.2644 439.357C99.5989 439.27 99.9059 439.1 100.156 438.862C100.4 438.631 100.576 438.338 100.666 438.015C100.896 436.808 101.008 435.581 101 434.352C101.018 433.118 100.906 431.885 100.667 430.674V430.675ZM91.4017 436.619V432.055L95.5751 434.337L91.4017 436.619Z" fill="black"/>
</g>
<path d="M34.4431 459.074L22.6231 463.632C21.8164 463.956 21.8211 464.406 22.4751 464.606L25.5097 465.553L32.5311 461.123C32.8631 460.921 33.1664 461.03 32.9171 461.251L27.2284 466.385H27.2271L27.2284 466.386L27.0191 469.514C27.3257 469.514 27.4611 469.373 27.6331 469.207L29.1071 467.774L32.1731 470.038C32.7384 470.35 33.1444 470.19 33.2851 469.515L35.2977 460.03C35.5037 459.204 34.9824 458.83 34.4431 459.074Z" fill="black"/>
<g opacity="0.6">
<path d="M66.4431 459.074L54.6231 463.632C53.8164 463.956 53.8211 464.406 54.4751 464.606L57.5097 465.553L64.5311 461.123C64.8631 460.921 65.1664 461.03 64.9171 461.251L59.2284 466.385H59.2271L59.2284 466.386L59.0191 469.514C59.3257 469.514 59.4611 469.373 59.6331 469.207L61.1071 467.774L64.1731 470.038C64.7384 470.35 65.1444 470.19 65.2851 469.515L67.2977 460.03C67.5037 459.204 66.9824 458.83 66.4431 459.074Z" fill="black"/>
</g>
<g opacity="0.3">
<path d="M98.4431 459.074L86.6231 463.632C85.8164 463.956 85.8211 464.406 86.4751 464.606L89.5097 465.553L96.5311 461.123C96.8631 460.921 97.1664 461.03 96.9171 461.251L91.2284 466.385H91.2271L91.2284 466.386L91.0191 469.514C91.3257 469.514 91.4611 469.373 91.6331 469.207L93.1071 467.774L96.1731 470.038C96.7384 470.35 97.1444 470.19 97.2851 469.515L99.2977 460.03C99.5037 459.204 98.9824 458.83 98.4431 459.074Z" fill="black"/>
</g>
<rect x="0.5" y="0.5" width="119" height="484" rx="4.5" stroke="#7B61FF" stroke-dasharray="10 5"/>
<defs>
<clipPath id="clip0_11518_3287">
<rect width="16" height="14" fill="white" transform="translate(37 410) rotate(-180)"/>
</clipPath>
<clipPath id="clip1_11518_3287">
<rect width="16" height="14" fill="white" transform="translate(21 396)"/>
</clipPath>
<clipPath id="clip2_11518_3287">
<rect width="16" height="14" fill="white" transform="translate(69 410) rotate(-180)"/>
</clipPath>
<clipPath id="clip3_11518_3287">
<rect width="16" height="14" fill="white" transform="translate(53 396)"/>
</clipPath>
<clipPath id="clip4_11518_3287">
<rect width="16" height="14" fill="white" transform="translate(101 410) rotate(-180)"/>
</clipPath>
<clipPath id="clip5_11518_3287">
<rect width="16" height="14" fill="white" transform="translate(85 396)"/>
</clipPath>
<clipPath id="clip6_11518_3287">
<rect width="16" height="11" fill="white" transform="translate(21 429)"/>
</clipPath>
<clipPath id="clip7_11518_3287">
<rect width="16" height="11" fill="white" transform="translate(53 429)"/>
</clipPath>
<clipPath id="clip8_11518_3287">
<rect width="16" height="11" fill="white" transform="translate(85 429)"/>
</clipPath>
</defs>
</svg>
